<?xml version="1.0" encoding="UTF-8" standalone="no"?>
<svg
   xmlns:dc="http://purl.org/dc/elements/1.1/"
   xmlns:cc="http://creativecommons.org/ns#"
   xmlns:rdf="http://www.w3.org/1999/02/22-rdf-syntax-ns#"
   xmlns:svg="http://www.w3.org/2000/svg"
   xmlns="http://www.w3.org/2000/svg"
   xmlns:sodipodi="http://sodipodi.sourceforge.net/DTD/sodipodi-0.dtd"
   xmlns:inkscape="http://www.inkscape.org/namespaces/inkscape"
   id="svg9987"
   version="1.1"
   height="21.377911"
   width="30"
   sodipodi:docname="army-v2.0.svg"
   inkscape:version="0.92.0 r">
  <sodipodi:namedview
     pagecolor="#ffffff"
     bordercolor="#666666"
     borderopacity="1"
     objecttolerance="10"
     gridtolerance="10"
     guidetolerance="10"
     inkscape:pageopacity="0"
     inkscape:pageshadow="2"
     inkscape:window-width="1918"
     inkscape:window-height="1058"
     id="namedview10"
     showgrid="false"
     fit-margin-top="0"
     fit-margin-left="0"
     fit-margin-right="0"
     fit-margin-bottom="0"
     inkscape:zoom="16.630846"
     inkscape:cx="12.98754"
     inkscape:cy="5.086445"
     inkscape:window-x="0"
     inkscape:window-y="20"
     inkscape:window-maximized="1"
     inkscape:current-layer="svg9987"
     scale-x="0.8" />
  <defs
     id="defs9981" />
  <metadata
     id="metadata9984">
    <rdf:RDF>
      <cc:Work
         rdf:about="">
        <dc:format>image/svg+xml</dc:format>
        <dc:type
           rdf:resource="http://purl.org/dc/dcmitype/StillImage" />
        <dc:title></dc:title>
      </cc:Work>
    </rdf:RDF>
  </metadata>
  <g>
    <rect
       ry="0.8372916"
       y="0.31774175"
       x="0.31774175"
       height="20.742428"
       width="29.364517"
       style="opacity:1;fill:#ffffff;fill-opacity:1;stroke:#000000;stroke-width:0.6354835;stroke-linecap:round;stroke-linejoin:miter;stroke-miterlimit:4;stroke-dasharray:none;stroke-dashoffset:0;stroke-opacity:1" />
    <g
       style="stroke-width:0.9259634"
       transform="matrix(1.0795779,0,0,1.0803348,-0.11408939,-0.11439217)">
      <path
         inkscape:connector-curvature="0"
         d="m 25.194083,2.1799024 0.453912,0.6468885 -1.280164,0.9174794 0.453909,0.6468885 0.640083,-0.4587382 -0.186159,1.1056297 -7.68096,5.5048637 0.453907,0.646889 -5.760719,4.12865 0.186158,-1.105627 -0.45391,-0.646889 -1.92024,1.376215 -0.2464438,-0.351261 1.9202378,-1.376218 -0.661346,-0.942519 z"
         style="fill:#666666;fill-opacity:1;fill-rule:evenodd;stroke:#000000;stroke-width:0.29421726;stroke-linecap:butt;stroke-linejoin:miter;stroke-miterlimit:4;stroke-dasharray:none;stroke-opacity:1"
         class="fix-color" />
      <path
         inkscape:connector-curvature="0"
         d="m 18.090316,11.555055 -2.354067,2.37911 -9.4162672,3.965184 H 2.3965392 L 3.1812271,16.313274 H 4.750606 l 0.7846879,0.872341 12.5550221,-5.63056"
         style="fill:#666666;fill-opacity:1;fill-rule:evenodd;stroke:#000000;stroke-width:0.29421726;stroke-linecap:butt;stroke-linejoin:miter;stroke-miterlimit:4;stroke-dasharray:none;stroke-opacity:1"
         class="fix-color" />
      <path
         inkscape:connector-curvature="0"
         d="m 17.599775,6.0118803 v 0.00218 c -1.579084,0.042749 -3.124878,0.7714596 -4.173896,1.9645092 -0.827266,0.9133584 -1.336513,2.0996225 -1.478122,3.3260725 -0.03697,0.453841 -0.03829,0.912911 0.01055,1.365947 0.160966,1.32086 0.767587,2.583013 1.712532,3.512441 0.896573,0.908166 2.09462,1.494199 3.351277,1.66413 0.502855,0.08044 1.014373,0.04408 1.51936,0.0068 1.417655,-0.176415 2.754531,-0.90395 3.692007,-1.990866 0.866418,-0.987889 1.37694,-2.281541 1.443388,-3.597945 0.02841,-0.675807 -0.03829,-1.357955 -0.234374,-2.006169 C 23.146894,9.2464798 22.5781,8.3180526 21.808091,7.6038339 20.887304,6.71696 19.662047,6.1657364 18.398216,6.0383588 18.132674,6.0170433 17.865772,6.0086948 17.59947,6.0123066 Z M 18.01,6.7595346 c 0.768617,0.027829 1.515013,0.2231018 2.190048,0.5810208 L 18.01,11.170907 Z m -0.414584,0.00444 V 11.170966 L 15.416215,7.3558256 c 0.517312,-0.2756207 1.076164,-0.4707045 1.647422,-0.5525203 0.172917,-0.025756 0.353126,-0.031499 0.531779,-0.039582 z m 2.96275,0.7893113 c 0.06773,0.043637 0.140402,0.077801 0.206165,0.1249915 0.557388,0.3979802 1.03728,0.9041364 1.40215,1.4865339 l -3.796225,2.2144597 z m -5.502254,0.013322 2.179195,3.8128111 -3.761501,-2.1925316 c 0.234082,-0.3753918 0.497823,-0.7308596 0.820455,-1.0326835 0.232031,-0.2227465 0.491293,-0.41373 0.761851,-0.587596 z m 7.314634,1.9645092 c 0.02666,0.052016 0.05985,0.1004491 0.08466,0.1534713 0.315655,0.6403756 0.478238,1.3463256 0.50573,2.0587886 h -4.373585 a 0.83199264,0.84062774 0 0 0 -0.0023,-0.0044 z m -9.100967,0.019835 3.750645,2.1881499 a 0.83199264,0.84062774 0 0 0 -0.0022,0.0044 h -4.334517 c 0.02226,-0.767327 0.23455,-1.513673 0.586039,-2.1925317 z m -0.581701,2.6134999 h 4.295452 a 0.83199264,0.84062774 0 0 0 0.0044,0.0222 l -3.735445,2.17938 C 12.901288,13.688055 12.714482,12.932603 12.687951,12.16474 Z m 5.934191,0 h 4.338855 c -0.03026,0.750576 -0.210677,1.495999 -0.55348,2.164028 -0.0088,0.01806 -0.02109,0.03464 -0.03026,0.05264 l -3.759336,-2.19473 a 0.83199264,0.84062774 0 0 0 0.0044,-0.0222 z m -1.452075,0.401222 a 0.83199264,0.84062774 0 0 0 0.02636,0.03061 l -2.144468,3.751423 c -0.527025,-0.339487 -0.994761,-0.774056 -1.365252,-1.28044 -0.08041,-0.108384 -0.141193,-0.229911 -0.212727,-0.344212 z m 1.26541,0 3.73328,2.179375 c -0.408528,0.650562 -0.963578,1.205253 -1.60835,1.615898 l -2.153125,-3.766713 a 0.83199264,0.84062774 0 0 0 0.02812,-0.02842 z m -0.37983,0.252174 2.144468,3.751422 c -0.340486,0.180027 -0.699222,0.323965 -1.072232,0.420974 -0.367767,0.103587 -0.740327,0.144383 -1.117813,0.14912 v -4.306137 a 0.83199264,0.84062774 0 0 0 0.04555,-0.01539 z m -0.507897,0.0022 a 0.83199264,0.84062774 0 0 0 0.04775,0.01332 v 4.30833 c -0.271694,-0.0044 -0.543339,-0.02694 -0.809602,-0.08547 -0.47701,-0.09462 -0.931927,-0.282963 -1.365255,-0.515248 z"
         style="display:inline;fill:#666666;fill-opacity:1;stroke:#000000;stroke-width:0.29421726;stroke-miterlimit:4;stroke-dasharray:none;stroke-opacity:1"
         class="fix-color" />
    </g>
  </g>
</svg>
