<svg xmlns="http://www.w3.org/2000/svg" width="30.001245" height="21.427326"><g stroke="#000"><rect ry=".82358736" y=".51219875" x=".51344293" height="20.402929" width="28.97436" fill="#fff" stroke-linecap="round"/><g stroke-width=".60250032" fill="#666" fill-rule="evenodd"><path d="M22.2 17.1v-1.5h1l1 .3h1.5v.25h-1.5l-.2.35.2.3v.3z" class="vizdip-fix-color" transform="matrix(.83088 0 0 .82887 2.548 2.632)"/><path d="M8.5 17.1v-1.5h-1l-1 .3H5v.25h1.5l.2.35-.2.3v.3zM11.6 16.5v-3l-.5-.5h.5V7.3l-.5-.3h.5V0h.2v7h.5l-.5.3V13h.5l-.5.5v3z" class="vizdip-vizdip-fix-color" transform="matrix(.83088 0 0 .82887 2.548 2.632)"/><path d="M20.1 16.5v-3l-.5-.5h.5V7.3l-.5-.3h.5V0h.2v7h.5l-.5.3V13h.5l-.5.5v3zM13 16.5V11l.2-.5h1.1l.2.5v5.5M17 16.5V11l.2-.5h1.1l.2.5v5.5" class="vizdip-fix-color" transform="matrix(.83088 0 0 .82887 2.548 2.632)"/><path d="M9.3 17.1v-2h.2v-2h1.3v1l-.3.5v.5h1v1h8.8v-1h.5v-1h.5v1h.5v2" class="vizdip-fix-color" transform="matrix(.83088 0 0 .82887 2.548 2.632)"/><path d="M0 19.5L.25 17H29.5l.5 1.5v1z" class="vizdip-fix-color" transform="matrix(.83088 0 0 .82887 2.548 2.632)"/></g></g></svg>
